<svg width="173" height="37" viewBox="0 0 173 37" fill="none" xmlns="http://www.w3.org/2000/svg">
<path d="M6.272 30.952H8.936C9.536 30.952 9.98 31.048 10.268 31.24C10.748 31.528 10.988 32.308 10.988 33.58C10.988 34.804 10.772 35.548 10.34 35.812C9.98 36.028 9.5 36.136 8.9 36.136H3.356C1.964 36.136 1.112 35.824 0.8 35.2C0.56 34.696 0.44 33.964 0.44 33.004V3.268C0.44 2.332 0.536 1.66 0.728 1.252C0.944 0.819999 1.268 0.531999 1.7 0.387999C2.132 0.243998 2.696 0.171998 3.392 0.171998H8.936C9.536 0.171998 9.98 0.255998 10.268 0.423999C10.748 0.735999 10.988 1.528 10.988 2.8C10.988 4.024 10.772 4.768 10.34 5.032C9.98 5.248 9.5 5.356 8.9 5.356H6.272V30.952ZM27.6411 22.06C28.0491 22.468 28.2531 23.308 28.2531 24.58V24.724C28.2531 25.3 28.2291 25.732 28.1811 26.02C28.1571 26.284 28.0371 26.608 27.8211 26.992C27.4611 27.688 26.5491 28.036 25.0851 28.036C23.6451 28.036 22.6851 27.808 22.2051 27.352C21.7491 26.896 21.5211 26.032 21.5211 24.76V24.616C21.5211 24.064 21.5331 23.644 21.5571 23.356C21.6051 23.068 21.7251 22.744 21.9171 22.384C22.2771 21.664 23.1771 21.304 24.6171 21.304C26.0811 21.304 27.0891 21.556 27.6411 22.06ZM36.1841 22.06C36.5921 22.468 36.7961 23.308 36.7961 24.58V24.724C36.7961 25.3 36.7721 25.732 36.7241 26.02C36.7001 26.284 36.5801 26.608 36.3641 26.992C36.0041 27.688 35.0921 28.036 33.6281 28.036C32.1881 28.036 31.2281 27.808 30.7481 27.352C30.2921 26.896 30.0641 26.032 30.0641 24.76V24.616C30.0641 24.064 30.0761 23.644 30.1001 23.356C30.1481 23.068 30.2681 22.744 30.4601 22.384C30.8201 21.664 31.7201 21.304 33.1601 21.304C34.6241 21.304 35.6321 21.556 36.1841 22.06ZM44.727 22.06C45.135 22.468 45.339 23.308 45.339 24.58V24.724C45.339 25.3 45.315 25.732 45.267 26.02C45.243 26.284 45.123 26.608 44.907 26.992C44.547 27.688 43.635 28.036 42.171 28.036C40.731 28.036 39.771 27.808 39.291 27.352C38.835 26.896 38.607 26.032 38.607 24.76V24.616C38.607 24.064 38.619 23.644 38.643 23.356C38.691 23.068 38.811 22.744 39.003 22.384C39.363 21.664 40.263 21.304 41.703 21.304C43.167 21.304 44.175 21.556 44.727 22.06ZM75.734 2.62C75.926 2.98 76.034 3.304 76.058 3.592C76.106 3.88 76.13 4.3 76.13 4.852V24.832C76.13 26.488 75.674 27.46 74.762 27.748C74.306 27.892 73.73 27.964 73.034 27.964C72.338 27.964 71.786 27.904 71.378 27.784C70.97 27.664 70.658 27.52 70.442 27.352C70.226 27.184 70.058 26.944 69.938 26.632C69.818 26.224 69.758 25.6 69.758 24.76V12.7C69.158 13.444 68.282 14.632 67.13 16.264C65.978 17.872 65.246 18.88 64.934 19.288C64.622 19.696 64.406 19.984 64.286 20.152C64.166 20.296 63.866 20.512 63.386 20.8C62.93 21.064 62.426 21.196 61.874 21.196C61.346 21.196 60.854 21.076 60.398 20.836C59.966 20.572 59.654 20.32 59.462 20.08L59.174 19.684C58.694 19.084 57.746 17.812 56.33 15.868C54.914 13.9 54.146 12.844 54.026 12.7V24.832C54.026 25.384 54.002 25.804 53.954 26.092C53.93 26.356 53.822 26.656 53.63 26.992C53.27 27.64 52.334 27.964 50.822 27.964C49.358 27.964 48.446 27.64 48.086 26.992C47.894 26.656 47.774 26.344 47.726 26.056C47.702 25.768 47.69 25.336 47.69 24.76V4.78C47.69 4.228 47.702 3.82 47.726 3.556C47.774 3.268 47.894 2.944 48.086 2.584C48.446 1.96 49.382 1.648 50.894 1.648C51.542 1.648 52.094 1.732 52.55 1.9C53.03 2.044 53.342 2.2 53.486 2.368L53.702 2.584L61.874 13.312C65.954 7.912 68.678 4.348 70.046 2.62C70.454 1.972 71.414 1.648 72.926 1.648C74.462 1.648 75.398 1.972 75.734 2.62ZM94.2422 3.484L103.962 23.572C104.37 24.388 104.574 25 104.574 25.408C104.574 26.272 103.878 27.052 102.486 27.748C101.67 28.156 101.022 28.36 100.542 28.36C100.086 28.36 99.7022 28.252 99.3902 28.036C99.1022 27.82 98.8862 27.592 98.7422 27.352C98.6222 27.112 98.4422 26.752 98.2022 26.272L96.3302 22.384H86.3582L84.4862 26.272C84.2462 26.752 84.0542 27.1 83.9102 27.316C83.7902 27.532 83.5742 27.76 83.2622 28C82.9742 28.216 82.5902 28.324 82.1102 28.324C81.6542 28.324 81.0182 28.12 80.2022 27.712C78.8102 27.04 78.1142 26.272 78.1142 25.408C78.1142 25 78.3182 24.388 78.7262 23.572L88.4462 3.448C88.7102 2.896 89.1062 2.452 89.6342 2.116C90.1862 1.78 90.7622 1.612 91.3622 1.612C92.6582 1.612 93.6182 2.236 94.2422 3.484ZM91.3262 12.124L88.9502 17.056H93.7382L91.3262 12.124ZM126.738 23.536C127.098 24.4 127.278 25.024 127.278 25.408C127.278 26.32 126.534 27.088 125.046 27.712C124.278 28.048 123.654 28.216 123.174 28.216C122.718 28.216 122.334 28.108 122.022 27.892C121.734 27.652 121.518 27.412 121.374 27.172C121.134 26.716 120.198 24.544 118.566 20.656L117.45 20.728H112.914V24.796C112.914 25.348 112.89 25.768 112.842 26.056C112.818 26.32 112.71 26.632 112.518 26.992C112.182 27.64 111.246 27.964 109.71 27.964C108.03 27.964 107.046 27.52 106.758 26.632C106.614 26.224 106.542 25.6 106.542 24.76V4.78C106.542 4.228 106.554 3.82 106.578 3.556C106.626 3.268 106.746 2.944 106.938 2.584C107.274 1.936 108.21 1.612 109.746 1.612H117.522C119.634 1.612 121.686 2.38 123.678 3.916C124.638 4.66 125.43 5.668 126.054 6.94C126.678 8.212 126.99 9.628 126.99 11.188C126.99 13.9 126.09 16.132 124.29 17.884C124.818 19.156 125.634 21.04 126.738 23.536ZM112.914 14.356H117.522C118.218 14.356 118.914 14.092 119.61 13.564C120.306 13.036 120.654 12.244 120.654 11.188C120.654 10.132 120.306 9.34 119.61 8.812C118.914 8.26 118.194 7.984 117.45 7.984H112.914V14.356ZM145.389 21.088L146.037 20.62C146.853 20.14 147.429 19.9 147.765 19.9C148.509 19.9 149.313 20.572 150.177 21.916C150.705 22.756 150.969 23.428 150.969 23.932C150.969 24.436 150.801 24.856 150.465 25.192C150.153 25.528 149.781 25.828 149.349 26.092C148.917 26.356 148.497 26.608 148.089 26.848C147.705 27.088 146.901 27.4 145.677 27.784C144.453 28.168 143.265 28.36 142.113 28.36C140.985 28.36 139.833 28.216 138.657 27.928C137.505 27.616 136.305 27.112 135.057 26.416C133.833 25.696 132.729 24.832 131.745 23.824C130.761 22.792 129.945 21.484 129.297 19.9C128.673 18.292 128.361 16.552 128.361 14.68C128.361 12.808 128.673 11.116 129.297 9.604C129.921 8.068 130.713 6.808 131.673 5.824C132.657 4.816 133.773 3.976 135.021 3.304C137.373 2.008 139.737 1.36 142.113 1.36C143.241 1.36 144.381 1.54 145.533 1.9C146.709 2.236 147.597 2.584 148.197 2.944L149.061 3.448C149.493 3.712 149.829 3.928 150.069 4.096C150.693 4.6 151.005 5.176 151.005 5.824C151.005 6.448 150.753 7.108 150.249 7.804C149.313 9.1 148.473 9.748 147.729 9.748C147.297 9.748 146.685 9.484 145.893 8.956C144.885 8.14 143.541 7.732 141.861 7.732C140.301 7.732 138.765 8.272 137.253 9.352C136.533 9.88 135.933 10.624 135.453 11.584C134.973 12.544 134.733 13.636 134.733 14.86C134.733 16.06 134.973 17.14 135.453 18.1C135.933 19.06 136.545 19.816 137.289 20.368C138.753 21.424 140.277 21.952 141.861 21.952C142.605 21.952 143.301 21.856 143.949 21.664C144.621 21.472 145.101 21.28 145.389 21.088ZM169.136 0.171998C170.552 0.171998 171.416 0.495998 171.728 1.144C171.968 1.624 172.088 2.332 172.088 3.268V33.004C172.088 33.964 171.98 34.648 171.764 35.056C171.572 35.488 171.26 35.776 170.828 35.92C170.42 36.064 169.868 36.136 169.172 36.136H163.628C162.524 36.136 161.876 35.776 161.684 35.056C161.588 34.672 161.54 34.168 161.54 33.544C161.54 32.944 161.588 32.452 161.684 32.068C161.78 31.684 161.936 31.42 162.152 31.276C162.512 31.06 162.992 30.952 163.592 30.952H166.256V5.356H163.628C162.524 5.356 161.876 4.984 161.684 4.24C161.588 3.88 161.54 3.4 161.54 2.8C161.54 2.176 161.588 1.672 161.684 1.288C161.78 0.903999 161.936 0.639999 162.152 0.495998C162.512 0.279998 162.992 0.171998 163.592 0.171998H169.136Z" fill="#44C432"/>
</svg>
